<?xml version="1.0" encoding="UTF-8"?>
<svg width="512" height="512" viewBox="0 0 512 512" xmlns="http://www.w3.org/2000/svg">
  <!-- 渐变背景 -->
  <defs>
    <linearGradient id="bgGradient" x1="0%" y1="0%" x2="0%" y2="100%">
      <stop offset="0%" style="stop-color:#E3F2FD;stop-opacity:1" />
      <stop offset="100%" style="stop-color:#90CAF9;stop-opacity:1" />
    </linearGradient>
  </defs>
  <rect width="512" height="512" fill="url(#bgGradient)"/>
  
  <!-- 主山峰 -->
  <path d="M256,450 L120,280 L160,230 L200,260 L256,200 L312,260 L352,230 L392,280 Z" fill="#1976D2"/>
  
  <!-- 左侧山峰 -->
  <path d="M120,280 L80,320 L80,450 L120,450 Z" fill="#1565C0"/>
  
  <!-- 右侧山峰 -->
  <path d="M392,280 L432,320 L432,450 L392,450 Z" fill="#1565C0"/>
  
  <!-- 前景山峰 -->
  <path d="M256,450 L200,320 L256,300 L312,320 Z" fill="#42A5F5"/>
  
  <!-- 播放按钮 -->
  <circle cx="256" cy="180" r="60" fill="#FFFFFF" opacity="0.95"/>
  <path d="M226,150 L226,210 L306,180 Z" fill="#1976D2"/>
  
  <!-- 装饰光点 -->
  <circle cx="160" cy="160" r="5" fill="#FFC107"/>
  <circle cx="352" cy="155" r="4" fill="#FFC107"/>
</svg>
